<svg width="24" height="24" viewBox="0 0 24 24" fill="none" xmlns="http://www.w3.org/2000/svg">
<path fill-rule="evenodd" clip-rule="evenodd" d="M6.69712 6.69684C7.72335 5.67056 9.0253 4.96408 10.4451 4.66308C11.8649 4.36207 13.3415 4.47948 14.6959 5.00105C16.0503 5.52263 17.2242 6.42597 18.0754 7.60152C18.9265 8.77707 19.4183 10.1743 19.4911 11.6238C20.4326 11.8678 21.2531 12.4464 21.7991 13.2513C22.3451 14.0562 22.5793 15.0324 22.4578 15.9975C22.3364 16.9625 21.8677 17.8503 21.1393 18.4949C20.4109 19.1394 19.4727 19.4967 18.5001 19.4998H6.50012C5.32013 19.5006 4.17792 19.0839 3.27551 18.3236C2.3731 17.5634 1.76866 16.5084 1.5691 15.3454C1.36954 14.1824 1.58773 12.9864 2.18507 11.9687C2.7824 10.9511 3.72039 10.1775 4.83312 9.78484C5.19288 8.6187 5.83287 7.55846 6.69712 6.69684ZM11.2931 15.7068C11.4806 15.8943 11.735 15.9996 12.0001 15.9996C12.2653 15.9996 12.5196 15.8943 12.7071 15.7068L14.7071 13.7068C14.8893 13.5182 14.9901 13.2656 14.9878 13.0034C14.9855 12.7412 14.8803 12.4904 14.6949 12.305C14.5095 12.1196 14.2587 12.0144 13.9965 12.0122C13.7343 12.0099 13.4817 12.1107 13.2931 12.2928L13.0001 12.5858V8.99984C13.0001 8.73462 12.8948 8.48027 12.7072 8.29273C12.5197 8.1052 12.2653 7.99984 12.0001 7.99984C11.7349 7.99984 11.4805 8.1052 11.293 8.29273C11.1055 8.48027 11.0001 8.73462 11.0001 8.99984V12.5858L10.7071 12.2928C10.5185 12.1107 10.2659 12.0099 10.0037 12.0122C9.74152 12.0144 9.49071 12.1196 9.3053 12.305C9.11989 12.4904 9.01472 12.7412 9.01245 13.0034C9.01017 13.2656 9.11096 13.5182 9.29312 13.7068L11.2931 15.7068Z" fill="#30D1FF"/>
</svg>
