<svg width="14" height="14" viewBox="0 0 14 14" fill="none" xmlns="http://www.w3.org/2000/svg">
<path d="M6.99966 0C5.07418 0 3.40819 0.689955 2.04766 2.05172C0.689189 3.4114 0 5.07664 0 7.0007C0 8.92476 0.689186 10.5886 2.04834 11.9483C3.40887 13.31 5.07487 14 7.00034 14C8.92582 14 10.5918 13.3093 11.9523 11.9483C13.3108 10.5886 14 8.92336 14 7.0007C14 5.07804 13.3108 3.4114 11.9523 2.05172C10.5918 0.689955 8.92582 0 7.00034 0H6.99966ZM10.0042 6.84234C10.007 6.89466 10.0118 6.94698 10.0118 7C10.0118 8.69105 8.66291 10.0612 6.99966 10.0612C6.22672 10.0612 5.52312 9.7626 4.98975 9.27566C3.59696 9.6768 2.55906 9.70121 2.34969 9.25682C2.14033 8.81174 2.81235 8.00668 3.9951 7.15766C3.99235 7.10534 3.98686 7.05302 3.98686 7C3.98686 5.30895 5.33572 3.93881 6.99897 3.93881C7.77259 3.93881 8.4755 4.23739 9.00887 4.72434C10.4017 4.3232 11.4396 4.29878 11.6489 4.74317C11.8583 5.18826 11.1863 5.99332 10.0035 6.84234H10.0042Z" fill="#371C94"/>
</svg>
